<?xml version="1.0" encoding="UTF-8" standalone="no"?><!DOCTYPE svg PUBLIC "-//W3C//DTD SVG 1.1//EN"
        "http://www.w3.org/Graphics/SVG/1.1/DTD/svg11.dtd">
<svg width="100%" height="100%" viewBox="0 0 67 102" version="1.1" xmlns="http://www.w3.org/2000/svg" xmlns:xlink="http://www.w3.org/1999/xlink" xml:space="preserve" xmlns:serif="http://www.serif.com/" style="fill-rule:evenodd;clip-rule:evenodd;stroke-linecap:round;stroke-miterlimit:1;">
    <g><g>
        <path d="M32.889,1.139l15.5,21l-31,0l15.5,-21Z" style="fill:#9fedf1;stroke:#fff;stroke-width:0.95px;"/>
        <path d="M32.889,10.884l8.307,11.255l-16.615,0l8.308,-11.255Z" style="fill:#b3bfa5;fill-opacity:0.466667;"/>
        <ellipse cx="32.994" cy="18.483" rx="3.711" ry="2.219" style="fill:#fff;"/></g>
        <path d="M1.889,66.139l0,4.5l5,0l0,-4.5" style="fill:#97cdc4;fill-opacity:0.698039;stroke:#aecfd1;stroke-width:0.3px;stroke-linejoin:round;stroke-miterlimit:1.5;"/>
        <path d="M6.889,101.139l0,-4.5l-5,0l0,4.5" style="fill:none;stroke:#aecfd1;stroke-width:0.45px;stroke-linejoin:round;stroke-miterlimit:1.5;"/>
        <path d="M4.389,69.639l0,28.5" style="fill:none;stroke:#aeedf0;stroke-width:0.7px;stroke-linejoin:round;stroke-miterlimit:1.5;"/><path d="M0.889,77.639l7,0" style="fill:none;stroke:#9bc4c6;stroke-width:0.45px;"/>
        <path d="M0.889,88.639l7,0" style="fill:none;stroke:#9bc4c6;stroke-width:0.45px;"/>
        <path d="M64.889,101.139l0,-4.5l-5,0l0,4.5" style="fill:none;stroke:#aecfd1;stroke-width:0.45px;stroke-linejoin:round;stroke-miterlimit:1.5;"/>
        <path d="M62.389,69.639l0,28.5" style="fill:none;stroke:#9fedf1;stroke-width:0.7px;stroke-linejoin:round;stroke-miterlimit:1.5;"/>
        <path d="M58.889,77.639l7,0" style="fill:none;stroke:#9bc4c6;stroke-width:0.45px;"/>
        <path d="M58.889,88.639l7,0" style="fill:none;stroke:#9bc4c6;stroke-width:0.45px;"/>
        <path d="M59.994,66.139l0,4.5l5,0l0,-4.5" style="fill:#97cdc4;fill-opacity:0.698039;stroke:#aecfd1;stroke-width:0.3px;stroke-linejoin:round;stroke-miterlimit:1.5;"/>
    </g>
</svg>